<?xml version="1.0" encoding="UTF-8" standalone="no"?>
<!-- Created with Inkscape (http://www.inkscape.org/) -->

<svg
   width="64"
   height="64"
   viewBox="0 0 16.933333 16.933334"
   version="1.1"
   id="svg5"
   inkscape:version="1.1.2 (b8e25be833, 2022-02-05)"
   xmlns:inkscape="http://www.inkscape.org/namespaces/inkscape"
   xmlns:sodipodi="http://sodipodi.sourceforge.net/DTD/sodipodi-0.dtd"
   xmlns="http://www.w3.org/2000/svg"
   xmlns:svg="http://www.w3.org/2000/svg">
  <sodipodi:namedview
     id="namedview7"
     pagecolor="#ffffff"
     bordercolor="#999999"
     borderopacity="1"
     inkscape:pageshadow="0"
     inkscape:pageopacity="0"
     inkscape:pagecheckerboard="0"
     inkscape:document-units="px"
     showgrid="false"
     inkscape:zoom="5.943771"
     inkscape:cx="23.974679"
     inkscape:cy="34.06928"
     inkscape:window-width="1920"
     inkscape:window-height="1001"
     inkscape:window-x="-9"
     inkscape:window-y="-9"
     inkscape:window-maximized="1"
     inkscape:current-layer="layer1"
     units="px" />
  <defs
     id="defs2" />
  <g
     inkscape:label="Layer 1"
     inkscape:groupmode="layer"
     id="layer1">
    <path
       style="fill:#000000;stroke-width:0.0687269"
       d="M 6.9070336,16.266676 C 5.2945334,15.936015 3.962149,15.221415 2.8151645,14.07207 1.6814926,12.936054 0.9264956,11.497661 0.61273308,9.8760382 0.5013112,9.3002059 0.5013112,7.6340602 0.61273308,7.0582289 1.3556738,3.2185408 4.5853053,0.52916667 8.4533931,0.52916667 c 4.1334569,0 7.4932419,3.04808323 7.9119299,7.17790883 0.134025,1.3220101 -0.07922,2.6644635 -0.632738,3.9830845 l -0.211059,0.502815 -0.286716,-0.09963 c -0.203241,-0.07061 -0.421688,-0.08654 -0.750291,-0.0547 -0.523706,0.05075 -0.608072,0.01432 -0.943069,-0.407223 -0.237646,-0.299044 -0.259331,-0.518113 -0.1023,-1.033748 C 13.80321,9.4021451 13.665829,7.9952819 13.055441,6.6683237 12.789079,6.0892588 12.491488,5.6109163 12.152778,5.2173922 11.963366,4.9973272 11.958472,4.9712994 11.958472,4.184599 c 0,-1.244718 -0.127847,-1.3351259 -1.077178,-0.7617029 C 10.49059,3.6588949 10.251265,3.7625037 10.150119,3.7394421 10.067431,3.720589 9.7551213,3.6400315 9.4561244,3.5604293 8.2032868,3.2268846 6.6927117,3.5087543 5.6259772,4.2751362 L 5.2930147,4.5143403 4.7056428,4.3773809 C 3.9285865,4.1961968 3.7952365,4.2004306 3.7000615,4.4093121 3.6378115,4.5460109 3.659749,4.7163893 3.8152708,5.3031772 L 4.0074302,6.0281526 3.7602865,6.5603714 c -0.841097,1.8113091 -0.7355251,4.0474486 0.260325,5.5143446 0.5780719,0.851486 1.3790157,1.399445 2.5084314,1.716116 1.7466658,0.489738 4.4292291,0.03019 5.5108981,-0.944081 0.215625,-0.194219 0.291816,-0.23112 0.315712,-0.152908 0.06947,0.227379 0.863401,0.898746 1.329319,1.124116 l 0.482625,0.233449 -0.456131,0.386964 c -1.195856,1.014516 -2.384175,1.585231 -3.8739385,1.860543 -0.7837969,0.144844 -2.139647,0.12993 -2.9304939,-0.03224 z M 6.6321304,10.054108 C 5.6367678,9.8074703 4.948324,9.0130197 4.948324,8.1110237 c 0,-0.2515501 -0.074719,-0.2787179 -0.3436406,-0.1249791 -0.1924125,0.1099941 -0.3436313,0.1311197 -0.3436313,0.048 0,-0.0303 0.1546313,-0.1204172 0.3436313,-0.2002688 0.2649,-0.111915 0.3436406,-0.1799794 0.3436406,-0.2970563 0,-0.1420762 -0.024375,-0.1498556 -0.378,-0.1205315 -0.2079,0.01725 -0.378,0.00563 -0.378,-0.025847 0,-0.031462 0.1005094,-0.057619 0.2233594,-0.058134 0.3382406,-0.00131 0.5164688,-0.067256 0.5522157,-0.2039737 0.0255,-0.097388 -0.020344,-0.1321866 -0.2170032,-0.1647085 -0.1371187,-0.022678 -0.33435,-0.041569 -0.4383,-0.041991 -0.10395,-5.194e-4 -0.189,-0.034144 -0.189,-0.074953 0,-0.0504 0.1430344,-0.058884 0.4458469,-0.026456 0.3982125,0.042647 0.4503375,0.03405 0.487875,-0.080438 C 5.2121741,6.2673191 5.5536397,5.7080366 5.9051366,5.3510441 7.4265117,3.8058593 9.9871802,4.041408 11.148321,5.8333532 c 0.118116,0.1822828 0.235631,0.3314241 0.26115,0.3314241 0.0255,0 0.221335,-0.060187 0.43515,-0.1337532 0.305438,-0.1050862 0.388753,-0.1139212 0.388753,-0.041222 0,0.054244 -0.142293,0.1266732 -0.343837,0.1750238 -0.189122,0.045366 -0.36121,0.1105828 -0.382435,0.1449225 -0.07134,0.1155057 0.04059,0.3226163 0.161672,0.2989735 0.353691,-0.069075 0.633338,-0.085022 0.633338,-0.036122 0,0.030553 -0.156619,0.076322 -0.348038,0.1017178 -0.308418,0.040913 -0.345572,0.063403 -0.326447,0.1976016 0.01697,0.1190353 0.09028,0.1661916 0.342741,0.2204128 0.176635,0.037941 0.344156,0.092175 0.372263,0.1205269 0.06609,0.066684 -0.08006,0.063047 -0.393413,-0.0098 L 11.699431,7.145 l 0.0028,0.4892466 c 0.0084,1.3546519 -0.788344,2.0915223 -2.6142093,2.4170674 -0.6527906,0.116392 -1.9915876,0.117909 -2.4561939,0.0028 z"
       id="path21" />
  </g>
</svg>
